<svg xmlns="http://www.w3.org/2000/svg" width="24" height="24">
    <path fill="#F1F4FB" fill-rule="evenodd" d="M2 0h20a2 2 0 0 1 2 2v20a2 2 0 0 1-2 2H2a2 2 0 0 1-2-2V2a2 2 0 0 1 2-2z"/>
    <path fill="#E3E7F0" fill-rule="evenodd" d="M2 0h20a2 2 0 0 1 2 2v20a2 2 0 0 1-2 2H2a2 2 0 0 1-2-2V2a2 2 0 0 1 2-2zm2.6 3h14.8A1.6 1.6 0 0 1 21 4.6v14.8a1.6 1.6 0 0 1-1.6 1.6H4.6A1.6 1.6 0 0 1 3 19.4V4.6A1.6 1.6 0 0 1 4.6 3z"/>
    <path fill="#E3E7F0" fill-rule="evenodd" d="M19.077 7.757a1.5 1.5 0 0 1 0 2.122l-6.364 6.363a1.5 1.5 0 1 1-2.121-2.121l6.364-6.364a1.501 1.501 0 0 1 2.121 0z"/>
    <path fill="#E3E7F0" fill-rule="evenodd" d="M5.456 10.426a1.442 1.442 0 0 0 0 2.039l4.079 4.079a1.442 1.442 0 0 0 2.039-2.039l-4.079-4.079a1.442 1.442 0 0 0-2.039 0z"/>
</svg>
